<svg width="24" height="24" viewBox="0 0 24 24" fill="none" xmlns="http://www.w3.org/2000/svg">
<path d="M5.05591 16.0876C5.81443 16.0876 6.54186 15.7863 7.07821 15.2499C7.61456 14.7136 7.91587 13.9861 7.91587 13.2276V10.7762C7.91587 10.0177 8.21719 9.29027 8.75353 8.75392C9.28988 8.21758 10.0173 7.91626 10.7758 7.91626C11.5343 7.91626 12.2618 7.61495 12.7981 7.0786C13.3345 6.54225 13.6358 5.8148 13.6358 5.0563V1.50414C13.1031 1.42189 12.5573 1.37921 12.0016 1.37921C6.13485 1.37921 1.37891 6.13517 1.37891 12.0019C1.37891 13.4497 1.66854 14.8299 2.19304 16.0876H5.05591Z" stroke="#21262C" stroke-width="1.71455" stroke-linecap="round" stroke-linejoin="round"/>
<path d="M12.0019 22.6244C14.4692 22.6244 16.74 21.7833 18.5432 20.372L18.5387 20.3691V18.9472C18.5387 18.4054 18.3235 17.8859 17.9403 17.5027C17.5573 17.1197 17.0377 16.9045 16.4959 16.9045C15.7374 16.9045 15.0099 16.6032 14.4736 16.0668C13.9372 15.5305 13.6359 14.803 13.6359 14.0445C13.6359 13.286 13.9372 12.5586 14.4736 12.0222C15.0099 11.4859 15.7374 11.1846 16.4959 11.1846H19.9769C20.8983 11.1896 21.8053 11.4135 22.6233 11.8377C22.5442 6.61177 18.6915 2.30078 13.6692 1.50906L13.636 1.50391V5.05607C13.636 5.81457 13.3347 6.54202 12.7983 7.07836C12.262 7.61471 11.5346 7.91603 10.776 7.91603C10.0175 7.91603 9.29009 8.21734 8.75375 8.75369C8.2174 9.29003 7.91609 10.0175 7.91609 10.776V13.2274C7.91609 13.9859 7.61477 14.7133 7.07843 15.2497C6.54208 15.786 5.81465 16.0873 5.05613 16.0873H2.19336C3.79422 19.9261 7.58297 22.6244 12.0019 22.6244Z" stroke="#21262C" stroke-width="1.71455" stroke-linecap="round" stroke-linejoin="round"/>
<path d="M18.5432 20.3723C21.0278 18.428 22.6245 15.4014 22.6245 12.0019C22.6245 11.9471 22.6242 11.8925 22.6233 11.8379C21.8053 11.4137 20.8981 11.1898 19.9767 11.1848H16.4958C15.7373 11.1848 15.0098 11.4861 14.4735 12.0224C13.9371 12.5588 13.6358 13.2862 13.6358 14.0447C13.6358 14.8032 13.9371 15.5307 14.4735 16.067C15.0098 16.6034 15.7373 16.9047 16.4958 16.9047C17.0376 16.9047 17.5572 17.1199 17.9402 17.503C18.3234 17.8862 18.5386 18.4057 18.5386 18.9475V20.3694L18.5432 20.3723Z" stroke="#21262C" stroke-width="1.71455" stroke-linecap="round" stroke-linejoin="round"/>
</svg>
