<svg width="24" height="24" viewBox="0 0 24 24" fill="none" xmlns="http://www.w3.org/2000/svg">
<path d="M5.40727 7.88037C7.51749 7.88037 8.70449 6.69339 8.70449 4.58317C8.70449 2.47295 7.51749 1.28595 5.40727 1.28595C3.29705 1.28595 2.11005 2.47295 2.11005 4.58317C2.11005 6.69339 3.29705 7.88037 5.40727 7.88037Z" stroke="#21262C" stroke-width="1.71455" stroke-linecap="round" stroke-linejoin="round"/>
<path d="M18.5963 7.88037C20.7064 7.88037 21.8933 6.69339 21.8933 4.58317C21.8933 2.47295 20.7064 1.28595 18.5963 1.28595C16.486 1.28595 15.299 2.47295 15.299 4.58317C15.299 6.69339 16.486 7.88037 18.5963 7.88037Z" stroke="#21262C" stroke-width="1.71455" stroke-linecap="round" stroke-linejoin="round"/>
<path d="M5.40731 22.718C1.28579 22.718 1.28577 17.1127 1.28577 12.002C4.57781 11.0101 6.37967 11.0505 9.5288 12.002C9.5288 17.1127 9.52883 22.718 5.40731 22.718Z" stroke="#21262C" stroke-width="1.71455" stroke-linecap="round" stroke-linejoin="round"/>
<path d="M18.5961 11.1776C14.4746 11.1776 14.4746 16.9646 14.4746 22.0752C17.6941 22.8819 19.4985 22.8994 22.7177 22.0752C22.7177 16.9646 22.7177 11.1776 18.5961 11.1776Z" stroke="#21262C" stroke-width="1.71455" stroke-linecap="round" stroke-linejoin="round"/>
</svg>
