<svg width="25" height="25" viewBox="0 0 25 25" fill="none" xmlns="http://www.w3.org/2000/svg">
<path d="M15.9495 2.64444C15.3747 3.33359 15.0233 4.14226 14.8215 5.00479C14.4067 6.77847 14.5923 8.90522 14.8411 10.9726C15.0972 13.1015 15.4251 15.1995 15.4075 17.1337C15.3907 18.9753 15.0551 20.5061 14.1604 21.6454C14.1331 21.6555 14.1026 21.6685 14.0676 21.6806C13.8685 21.7491 13.5427 21.8471 13.0725 21.9472C12.1316 22.1475 10.6101 22.3573 8.36157 22.3573C6.14063 22.3573 4.70995 22.0449 3.8606 21.7558C3.74505 21.7164 3.64001 21.6773 3.54517 21.6396C4.33741 20.3465 4.58028 18.7533 4.60376 17.1483C4.63288 15.1574 4.32224 12.9189 4.11646 10.8876C3.90464 8.79677 3.80252 6.92402 4.15063 5.4501C4.32106 4.72881 4.59241 4.13964 4.98267 3.67764C5.34849 3.24462 5.85084 2.88854 6.55884 2.64444H15.9495Z" fill="white" stroke="#21262C" stroke-width="1.71455"/>
<path d="M19.3917 2.6441C20.1101 2.76695 20.6074 3.09857 20.9698 3.56012C21.3558 4.05175 21.6166 4.72647 21.7579 5.52887C21.9977 6.89144 21.8637 8.45634 21.6104 9.66168H16.4317C16.0057 6.63789 16.4821 4.89384 17.1299 3.92828C17.7942 2.93836 18.7207 2.64242 19.3917 2.6441Z" fill="white" stroke="#21262C" stroke-width="1.71455"/>
<path d="M22.2872 10.5186H15.6983C14.4394 3.36722 17.6178 1.73339 19.4749 1.78697C23.3318 2.38693 23.0193 7.85804 22.2872 10.5186Z" stroke="white" stroke-width="1.71455" stroke-linecap="round" stroke-linejoin="round"/>
<path d="M14.6874 22.3577C19.4165 16.8427 11.2536 4.09612 18.8412 1.78702H6.41285C-0.857792 4.09612 6.66994 17.2662 2.25903 21.9204C2.25903 21.9204 3.75853 23.2143 8.3616 23.2143C12.9647 23.2143 14.6874 22.3577 14.6874 22.3577Z" stroke="white" stroke-width="1.71455" stroke-linejoin="round"/>
<path d="M7.74426 7.0343H11.0585Z" fill="white"/>
<path d="M7.74426 7.0343H11.0585" stroke="#21262C" stroke-width="1.71455" stroke-linecap="round" stroke-linejoin="round"/>
<path d="M8.17279 12.5004H11.487Z" fill="white"/>
<path d="M8.17279 12.5004H11.487" stroke="#21262C" stroke-width="1.71455" stroke-linecap="round" stroke-linejoin="round"/>
<path d="M8.17279 17.9669H11.487Z" fill="white"/>
<path d="M8.17279 17.9669H11.487" stroke="#21262C" stroke-width="1.71455" stroke-linecap="round" stroke-linejoin="round"/>
</svg>
