<svg width="25" height="25" viewBox="0 0 25 25" fill="none" xmlns="http://www.w3.org/2000/svg">
<path d="M12.4999 14.4444C14.1446 14.4444 15.4778 15.7776 15.4778 17.4223V22.8507H9.52206V17.4223C9.52206 15.7776 10.8553 14.4444 12.4999 14.4444Z" fill="#21262C"/>
<path d="M1.33926 15.1254L11.1475 3.74787C11.8598 2.92153 13.1401 2.92153 13.8525 3.74787L23.6607 15.1254" stroke="white" stroke-width="1.71455" stroke-linecap="round" stroke-linejoin="round"/>
<path d="M4.77325 11.1512L11.1449 3.72798C11.8575 2.89776 13.1423 2.89776 13.8549 3.72798L20.2266 11.1512L20.5905 13.7475C20.9184 16.0872 20.9023 18.4622 20.5428 20.7972C20.3609 21.9788 19.3441 22.8509 18.1486 22.8509H6.85118C5.65568 22.8509 4.63894 21.9788 4.45698 20.7972C4.09743 18.4622 4.08136 16.0872 4.4093 13.7475L4.77325 11.1512Z" stroke="white" stroke-width="1.71455" stroke-linejoin="round"/>
<path d="M11.6602 4.89062C12.0749 4.4017 12.7997 4.37171 13.2529 4.7998L13.3398 4.89062L18.9854 11.5469L19.2939 13.7695C19.5466 15.5939 19.5673 17.4429 19.3564 19.2705L19.252 20.0527C19.1245 20.8899 18.4144 21.5 17.5889 21.5H15.418L14.4922 16.4102C14.4543 16.2023 14.2908 16.0442 14.0889 16.0078L14 16H10.5C10.2737 16 10.0801 16.151 10.0195 16.3613L10.002 16.4551L9.54297 21.5H7.41113C6.63725 21.5 5.96535 20.9638 5.7793 20.207L5.74902 20.0527C5.47196 18.2321 5.42591 16.384 5.6123 14.5537L5.70703 13.7695L6.01367 11.5479L11.6602 4.89062Z" fill="white" stroke="#21262C" stroke-linejoin="round"/>
<path d="M16.5 21.5H15.5L15.4777 17.4223C15.4777 15.7777 14.1445 14.4445 12.4998 14.4445C10.8552 14.4445 9.52197 15.7777 9.52197 17.4223L9.5 21.5H8.5" stroke="#21262C" stroke-linecap="round" stroke-linejoin="round"/>
<path d="M15 22V17.4797C15 16.1102 13.8807 15 12.5 15C11.1193 15 10 16.1102 10 17.4797V22" stroke="white" stroke-linecap="round" stroke-linejoin="round"/>
</svg>
