<svg width="24" height="24" viewBox="0 0 24 24" fill="none" xmlns="http://www.w3.org/2000/svg">
<g clip-path="url(#clip0_57_83)">
<path d="M17.1924 17.0798C19.3524 15.3102 20.4317 14.2311 22.1154 12.1569C20.4317 10.0826 19.3524 9.00361 17.1924 7.23395" stroke="#21262C" stroke-width="1.71455" stroke-linecap="round" stroke-linejoin="round"/>
<path d="M6.86523 12.1572H22.0608" stroke="#21262C" stroke-width="1.71455" stroke-linecap="round" stroke-linejoin="round"/>
<path d="M16.8674 2.3644C16.3132 1.8536 15.5662 1.51722 14.723 1.45719C13.1458 1.34493 11.5212 1.28632 9.862 1.28632C8.20276 1.28632 6.57823 1.34493 5.00103 1.4572C3.26549 1.58073 1.93779 2.87491 1.8594 4.45075C1.73832 6.88454 1.67456 9.41106 1.67456 12.0023C1.67456 14.5935 1.73832 17.12 1.8594 19.5538C1.93779 21.1296 3.26549 22.4238 5.00103 22.5474C6.57823 22.6597 8.20276 22.7181 9.862 22.7181C11.5212 22.7181 13.1458 22.6597 14.723 22.5474C15.5662 22.4874 16.3132 22.151 16.8674 21.6402" stroke="#21262C" stroke-width="1.71455" stroke-linecap="round"/>
</g>
<defs>
<clipPath id="clip0_57_83">
<rect width="24.0037" height="24.0037" fill="white"/>
</clipPath>
</defs>
</svg>
