<svg width="25" height="25" viewBox="0 0 25 25" fill="none" xmlns="http://www.w3.org/2000/svg">
<g clip-path="url(#clip0_24_56)">
<path d="M5.2659 16.7553C6.0559 16.7553 6.81353 16.4414 7.37213 15.8828C7.93074 15.3242 8.24456 14.5666 8.24456 13.7766V11.2235C8.24456 10.4335 8.55838 9.67584 9.11699 9.11723C9.6756 8.55862 10.4332 8.2448 11.2232 8.2448C12.0132 8.2448 12.7708 7.93098 13.3295 7.37237C13.8881 6.81377 14.2019 6.05612 14.2019 5.26614V1.56654C13.6471 1.48088 13.0787 1.43643 12.4999 1.43643C6.38962 1.43643 1.43628 6.38978 1.43628 12.5C1.43628 14.0079 1.73794 15.4454 2.28421 16.7553H5.2659Z" fill="white"/>
<path d="M5.2659 16.7553C6.0559 16.7553 6.81353 16.4414 7.37213 15.8828C7.93074 15.3242 8.24456 14.5666 8.24456 13.7766V11.2235C8.24456 10.4335 8.55838 9.67584 9.11699 9.11723C9.6756 8.55862 10.4332 8.2448 11.2232 8.2448C12.0132 8.2448 12.7708 7.93098 13.3295 7.37237C13.8881 6.81377 14.2019 6.05612 14.2019 5.26614V1.56654C13.6471 1.48088 13.0787 1.43643 12.4999 1.43643C6.38962 1.43643 1.43628 6.38978 1.43628 12.5C1.43628 14.0079 1.73794 15.4454 2.28421 16.7553H5.2659Z" stroke="white" stroke-width="1.71455" stroke-linecap="round" stroke-linejoin="round"/>
<path d="M19.3129 21.2178C21.9006 19.1928 23.5636 16.0406 23.5636 12.5C23.5636 12.443 23.5633 12.3861 23.5624 12.3293C22.7104 11.8874 21.7656 11.6543 20.806 11.649H17.1805C16.3905 11.649 15.6329 11.9628 15.0743 12.5214C14.5157 13.08 14.2018 13.8376 14.2018 14.6276C14.2018 15.4176 14.5157 16.1753 15.0743 16.7339C15.6329 17.2925 16.3905 17.6063 17.1805 17.6063C17.7448 17.6063 18.286 17.8305 18.6849 18.2295C19.084 18.6286 19.3081 19.1696 19.3081 19.7339V21.2148L19.3129 21.2178Z" fill="white" stroke="white" stroke-width="1.71455" stroke-linecap="round" stroke-linejoin="round"/>
<path d="M14.2366 1.57172C19.4673 2.3963 23.48 6.88621 23.5623 12.3291C22.7104 11.8872 21.7657 11.6541 20.8061 11.6488H17.1806C16.3906 11.6488 15.633 11.9626 15.0744 12.5212C14.5158 13.0798 14.202 13.8375 14.202 14.6275C14.202 15.4174 14.5158 16.1751 15.0744 16.7337C15.633 17.2923 16.3906 17.6061 17.1806 17.6061C17.7449 17.6061 18.2861 17.8303 18.685 18.2292C19.0841 18.6283 19.3082 19.1694 19.3082 19.7337V21.2146L19.3129 21.2176C17.4349 22.6874 15.0698 23.5635 12.5002 23.5635C7.89779 23.5635 3.95179 20.7531 2.28448 16.7551" stroke="white" stroke-width="1.71455" stroke-linecap="round" stroke-linejoin="round"/>
<path d="M7.37213 15.8828C6.81353 16.4414 6.0559 16.7553 5.2659 16.7553H2.28421C1.73794 15.4454 1.43628 14.0079 1.43628 12.5C1.43628 6.38978 6.38962 1.43643 12.4999 1.43643C13.0787 1.43643 13.6471 1.48088 14.2019 1.56654V5.26614C14.2019 6.05612 13.8881 6.81377 13.3295 7.37237C12.7708 7.93098 12.0132 8.2448 11.2232 8.2448C10.4332 8.2448 9.6756 8.55862 9.11699 9.11723C8.55838 9.67584 8.24456 10.4335 8.24456 11.2235V13.7766C8.24456 14.5666 7.93074 15.3242 7.37213 15.8828Z" fill="white"/>
<path d="M14.7025 2.16693C19.1771 3.11577 22.6021 6.89776 23.0179 11.5468C22.4329 11.3336 21.8204 11.2025 21.1976 11.162L20.8089 11.1484H17.181C16.2584 11.1484 15.3734 11.5155 14.721 12.1679C14.0686 12.8203 13.7015 13.7053 13.7015 14.6279C13.7016 15.5503 14.0688 16.4346 14.721 17.0869C15.3734 17.7392 16.2584 18.1064 17.181 18.1064C17.5586 18.1065 17.9227 18.2374 18.2122 18.4745L18.3314 18.5829C18.6366 18.8882 18.8078 19.3018 18.8079 19.7333V20.9716C17.0475 22.2847 14.8659 23.0634 12.5003 23.0634C8.37734 23.0634 4.80505 20.7012 3.06476 17.2548H5.26593C6.18853 17.2548 7.07352 16.8886 7.72589 16.2363C8.37827 15.5839 8.74445 14.6989 8.74445 13.7763V11.2236C8.74445 10.5662 9.00617 9.93548 9.47101 9.47064C9.93573 9.00598 10.5658 8.74517 11.223 8.74506C12.1456 8.74506 13.0306 8.37788 13.6829 7.72552C14.3353 7.07315 14.7025 6.18815 14.7025 5.26556V2.16693Z" fill="white" stroke="#21262C" stroke-linecap="round" stroke-linejoin="round"/>
<circle cx="12.5" cy="12.5" r="10.5" stroke="#21262C" stroke-width="1.2"/>
</g>
<defs>
<clipPath id="clip0_24_56">
<rect width="25" height="25" fill="white"/>
</clipPath>
</defs>
</svg>
