<svg width="24" height="24" viewBox="0 0 24 24" fill="none" xmlns="http://www.w3.org/2000/svg">
<path d="M9.73218 21.358C10.1657 22.1663 11.0187 22.7161 12.0001 22.7161C12.9815 22.7161 13.8345 22.1663 14.268 21.358" stroke="#21262C" stroke-width="1.71455" stroke-linecap="round" stroke-linejoin="round"/>
<path d="M7.3063 3.22829C8.55117 1.98342 10.2396 1.28406 12.0001 1.28406C13.7606 1.28406 15.449 1.98342 16.6939 3.22829C17.9388 4.47316 18.6381 6.16156 18.6381 7.92208C18.6381 8.95795 18.8091 9.9313 19.0662 10.9269C19.1383 11.1523 19.2176 11.3649 19.303 11.5656C19.7008 12.5013 20.7961 12.8206 21.6134 13.4256C22.8333 14.3287 22.5974 16.2611 21.5827 17.0113C21.5827 17.0113 19.9444 18.4296 12.0001 18.4296C4.05565 18.4296 2.41743 17.0113 2.41743 17.0113C1.40279 16.2611 1.16694 14.3287 2.38681 13.4256C3.20405 12.8206 4.29931 12.5014 4.6972 11.5657C5.09381 10.6329 5.36207 9.43979 5.36207 7.92208C5.36207 6.16156 6.06144 4.47316 7.3063 3.22829Z" fill="#21262C"/>
<path d="M7.3063 3.22829C8.55117 1.98342 10.2396 1.28406 12.0001 1.28406C13.7606 1.28406 15.449 1.98342 16.6939 3.22829C17.9388 4.47316 18.6381 6.16156 18.6381 7.92208C18.6381 8.95795 18.8091 9.9313 19.0662 10.9269C19.1383 11.1523 19.2176 11.3649 19.303 11.5656C19.7008 12.5013 20.7961 12.8206 21.6134 13.4256C22.8333 14.3287 22.5974 16.2611 21.5827 17.0113C21.5827 17.0113 19.9444 18.4296 12.0001 18.4296C4.05565 18.4296 2.41743 17.0113 2.41743 17.0113C1.40279 16.2611 1.16694 14.3287 2.38681 13.4256C3.20405 12.8206 4.29931 12.5014 4.6972 11.5657C5.09381 10.6329 5.36207 9.43979 5.36207 7.92208C5.36207 6.16156 6.06144 4.47316 7.3063 3.22829Z" stroke="#21262C" stroke-width="1.71455" stroke-linecap="round" stroke-linejoin="round"/>
<path d="M2.73596 16.6258L2.71448 16.6092L2.58362 16.4969C2.28973 16.2097 2.08725 15.751 2.06311 15.2518C2.03944 14.7617 2.18962 14.2927 2.52795 13.9608L2.6842 13.827C2.86447 13.6936 3.0657 13.5722 3.28674 13.4442C3.50047 13.3204 3.74324 13.1849 3.96838 13.0409C4.36556 12.7867 4.77998 12.4624 5.05042 11.9784L5.15686 11.7616C5.58249 10.7606 5.86194 9.49937 5.86194 7.92172C5.86203 6.29395 6.50879 4.7329 7.65979 3.58188C8.8108 2.43087 10.3719 1.78413 11.9996 1.78403C13.6275 1.78403 15.1893 2.43077 16.3405 3.58188C17.4914 4.73289 18.1382 6.29399 18.1383 7.92172C18.1383 9.01373 18.3182 10.0317 18.5817 11.0516L18.5895 11.0789C18.6278 11.1989 18.6684 11.3159 18.7106 11.4295L18.8424 11.7616C19.1006 12.3688 19.5772 12.7505 20.0309 13.0409C20.256 13.1849 20.4987 13.3204 20.7125 13.4442C20.8232 13.5083 20.9293 13.5705 21.0299 13.6336L21.316 13.827C21.7644 14.159 21.9632 14.6918 21.9362 15.2518C21.912 15.7509 21.7105 16.2097 21.4166 16.4969L21.2858 16.6092C21.2762 16.6163 21.2665 16.6239 21.2574 16.6317L21.2614 16.6278C21.2625 16.6268 21.2636 16.6264 21.2643 16.6258H21.2633C21.2589 16.6291 21.2469 16.6379 21.2262 16.6512C21.1846 16.6779 21.1083 16.724 20.9869 16.7821C20.7438 16.8985 20.3225 17.0647 19.6481 17.2352C18.2973 17.5767 15.9446 17.9295 11.9996 17.9295C8.05481 17.9295 5.70295 17.5767 4.35217 17.2352C3.67763 17.0647 3.25644 16.8985 3.01331 16.7821C2.89192 16.724 2.81563 16.6779 2.77405 16.6512C2.75336 16.6379 2.74142 16.6292 2.73694 16.6258C2.73475 16.6242 2.73364 16.6247 2.73499 16.6258H2.73596ZM2.73596 16.6258L2.7428 16.6317L2.73889 16.6278C2.73776 16.6268 2.73663 16.6264 2.73596 16.6258Z" stroke="white" stroke-linecap="round" stroke-linejoin="round"/>
</svg>
