<svg width="24" height="24" viewBox="0 0 24 24" fill="none" xmlns="http://www.w3.org/2000/svg">
<path d="M9.73401 21.3599C10.1675 22.1681 11.0205 22.718 12.0019 22.718C12.9833 22.718 13.8363 22.1681 14.2699 21.3599" stroke="#21262C" stroke-width="1.71455" stroke-linecap="round" stroke-linejoin="round"/>
<path d="M7.30813 3.23012C8.553 1.98525 10.2414 1.28589 12.0019 1.28589C13.7624 1.28589 15.4508 1.98525 16.6957 3.23012C17.9406 4.47499 18.6399 6.16339 18.6399 7.92391C18.6399 8.95978 18.8109 9.93313 19.0681 10.9287C19.1401 11.1541 19.2195 11.3668 19.3049 11.5674C19.7026 12.5032 20.7979 12.8225 21.6152 13.4275C22.8351 14.3306 22.5992 16.2629 21.5845 17.0131C21.5845 17.0131 19.9463 18.4314 12.0019 18.4314C4.05748 18.4314 2.41926 17.0131 2.41926 17.0131C1.40462 16.2629 1.16878 14.3306 2.38864 13.4275C3.20588 12.8225 4.30114 12.5032 4.69903 11.5675C5.09564 10.6348 5.3639 9.44162 5.3639 7.92391C5.3639 6.16339 6.06327 4.47499 7.30813 3.23012Z" stroke="#21262C" stroke-width="1.71455" stroke-linecap="round" stroke-linejoin="round"/>
</svg>
