<svg width="25" height="25" viewBox="0 0 25 25" fill="none" xmlns="http://www.w3.org/2000/svg">
<g clip-path="url(#clip0_24_75)">
<path fill-rule="evenodd" clip-rule="evenodd" d="M22.8838 13.8915C23.8226 13.2014 23.8226 11.7986 22.8838 11.1085C21.3306 9.96682 20.5404 8.05164 20.8317 6.14607C21.0081 4.99052 20.0095 3.99188 18.854 4.16841C16.9484 4.45955 15.0332 3.66948 13.8915 2.11625C13.2014 1.1774 11.7987 1.1774 11.1086 2.11625C9.96688 3.66948 8.0517 4.45955 6.14613 4.16841C4.99058 3.99188 3.99194 4.99052 4.16847 6.14607C4.45962 8.05164 3.66954 9.96682 2.11631 11.1085C1.17746 11.7986 1.17746 13.2014 2.11631 13.8915C3.66953 15.0331 4.45962 16.9483 4.16847 18.8539C3.99194 20.0095 4.99058 21.0081 6.14613 20.8316C8.0517 20.5404 9.96688 21.3306 11.1086 22.8838C11.7987 23.8225 13.2014 23.8225 13.8915 22.8838C15.0332 21.3306 16.9484 20.5404 18.854 20.8316C20.0095 21.0081 21.0081 20.0095 20.8317 18.8539C20.5404 16.9483 21.3306 15.0331 22.8838 13.8915ZM17.0369 12.4999C17.0369 15.0055 15.0057 17.0367 12.5001 17.0367C9.99447 17.0367 7.96328 15.0055 7.96328 12.4999C7.96328 9.9943 9.99447 7.96311 12.5001 7.96311C15.0057 7.96311 17.0369 9.9943 17.0369 12.4999Z" fill="white"/>
<path d="M22.8838 11.1086C23.8225 11.7987 23.8225 13.2014 22.8838 13.8915C21.3306 15.0332 20.5404 16.9484 20.8316 18.854C21.0081 20.0095 20.0095 21.0081 18.854 20.8316C16.9484 20.5404 15.0332 21.3306 13.8915 22.8838C13.2014 23.8225 11.7987 23.8225 11.1086 22.8838C9.96688 21.3306 8.0517 20.5404 6.14613 20.8316C4.9906 21.0081 3.99194 20.0095 4.16849 18.854C4.45961 16.9484 3.66954 15.0332 2.11631 13.8915C1.17746 13.2014 1.17746 11.7987 2.11631 11.1086C3.66954 9.96688 4.45961 8.0517 4.16849 6.14613C3.99194 4.9906 4.9906 3.99194 6.14613 4.16849C8.0517 4.45961 9.96688 3.66954 11.1086 2.11631C11.7987 1.17746 13.2014 1.17746 13.8915 2.11631C15.0332 3.66954 16.9484 4.45961 18.854 4.16849C20.0095 3.99194 21.0081 4.9906 20.8316 6.14613C20.5404 8.0517 21.3306 9.96688 22.8838 11.1086Z" stroke="white" stroke-width="1.71455" stroke-linecap="round" stroke-linejoin="round"/>
<path d="M12.5 17.0369C15.0056 17.0369 17.0368 15.0057 17.0368 12.5001C17.0368 9.99451 15.0056 7.96332 12.5 7.96332C9.99439 7.96332 7.9632 9.99451 7.9632 12.5001C7.9632 15.0057 9.99439 17.0369 12.5 17.0369Z" fill="white"/>
<path d="M12.5002 17.0369C15.0058 17.0369 17.037 15.0057 17.037 12.5001C17.037 9.99451 15.0058 7.96332 12.5002 7.96332C9.99464 7.96332 7.96344 9.99451 7.96344 12.5001C7.96344 15.0057 9.99464 17.0369 12.5002 17.0369Z" stroke="#21262C" stroke-width="1.71455" stroke-linecap="round" stroke-linejoin="round"/>
<path d="M11.5118 2.41211C11.9715 1.78721 12.8755 1.74815 13.3907 2.29492L13.4884 2.41211C14.6624 4.00932 16.5817 4.87066 18.5382 4.70898L18.9298 4.66309C19.7003 4.54548 20.374 5.16294 20.3517 5.91797L20.337 6.07031C20.0377 8.02868 20.7808 9.99648 22.2784 11.2666L22.588 11.5117C23.2128 11.9714 23.2519 12.8754 22.7052 13.3906L22.588 13.4883C20.9908 14.6623 20.1294 16.5815 20.2911 18.5381L20.337 18.9297C20.4545 19.7003 19.8371 20.3738 19.0822 20.3516L18.9298 20.3369C16.9714 20.0376 15.0036 20.7806 13.7335 22.2783L13.4884 22.5879C13.0288 23.2127 12.1247 23.2517 11.6095 22.7051L11.5118 22.5879C10.3379 20.9907 8.41858 20.1293 6.46204 20.291L6.07043 20.3369C5.2998 20.4544 4.62623 19.837 4.64856 19.082L4.66321 18.9297C4.96239 16.9714 4.21949 15.0035 2.7218 13.7334L2.41223 13.4883C1.78732 13.0286 1.74828 12.1246 2.29504 11.6094L2.41223 11.5117C4.00944 10.3377 4.87078 8.41843 4.70911 6.46191L4.66321 6.07031C4.54558 5.29973 5.1631 4.62609 5.91809 4.64844L6.07043 4.66309C8.02875 4.96227 9.99659 4.21938 11.2667 2.72168L11.5118 2.41211Z" stroke="#21262C" stroke-linecap="round" stroke-linejoin="round"/>
</g>
<defs>
<clipPath id="clip0_24_75">
<rect width="25" height="25" fill="white"/>
</clipPath>
</defs>
</svg>
