<svg width="24" height="24" viewBox="0 0 24 24" fill="none" xmlns="http://www.w3.org/2000/svg">
<path d="M12.0018 22.7178C17.9201 22.7178 22.7178 17.9202 22.7178 12.0019C22.7178 6.08364 17.9201 1.28595 12.0018 1.28595C6.08358 1.28595 1.28589 6.08364 1.28589 12.0019C1.28589 17.9202 6.08358 22.7178 12.0018 22.7178Z" stroke="#21262C" stroke-width="1.71455" stroke-linecap="round" stroke-linejoin="round"/>
<path d="M12.0019 12.9965C14.0726 12.9965 15.7512 11.3178 15.7512 9.24715C15.7512 7.17645 14.0726 5.4978 12.0019 5.4978C9.9312 5.4978 8.25256 7.17645 8.25256 9.24715C8.25256 11.3178 9.9312 12.9965 12.0019 12.9965Z" stroke="#21262C" stroke-width="1.71455" stroke-linecap="round" stroke-linejoin="round"/>
<path d="M18.353 20.6338C16.5757 21.9437 14.3791 22.7178 12.0018 22.7178C9.62452 22.7178 7.42801 21.9437 5.65063 20.6338C6.0046 19.3007 6.77022 18.1094 7.84315 17.2324C9.0168 16.2731 10.486 15.7491 12.0018 15.7491C13.5176 15.7491 14.9868 16.2731 16.1605 17.2324C17.2334 18.1094 17.9991 19.3007 18.353 20.6338Z" stroke="#21262C" stroke-width="1.71455" stroke-linecap="round" stroke-linejoin="round"/>
</svg>
